<?xml version="1.0" encoding="UTF-8"?>
<svg version="1.1" xmlns="http://www.w3.org/2000/svg" width="1024" height="1024">
<path d="M0 0 C4.39183572 1.8434866 8.27301553 1.6169124 12.9765625 1.453125 C14.69130816 1.40997078 16.40615726 1.37069069 18.12109375 1.3359375 C18.87366455 1.31160645 19.62623535 1.28727539 20.40161133 1.26220703 C22.1640625 1.328125 22.1640625 1.328125 23.1640625 2.328125 C23.30799707 6.66343418 23.20618311 10.98970231 23.1640625 15.328125 C27.4540625 15.658125 31.7440625 15.988125 36.1640625 16.328125 C36.15246094 15.32910156 36.14085937 14.33007812 36.12890625 13.30078125 C36.11537109 11.36525391 36.11537109 11.36525391 36.1015625 9.390625 C36.08996094 8.10285156 36.07835937 6.81507813 36.06640625 5.48828125 C36.1640625 2.328125 36.1640625 2.328125 37.1640625 1.328125 C39.65465164 1.22814858 42.11133645 1.18932873 44.6015625 1.203125 C45.29572266 1.19925781 45.98988281 1.19539063 46.70507812 1.19140625 C51.91078262 1.20148506 51.91078262 1.20148506 54.1640625 2.328125 C54.1640625 6.948125 54.1640625 11.568125 54.1640625 16.328125 C58.7840625 16.328125 63.4040625 16.328125 68.1640625 16.328125 C68.84949393 20.44071359 69.28132437 23.65074638 69.2265625 27.703125 C69.21753906 28.57710938 69.20851563 29.45109375 69.19921875 30.3515625 C69.18181641 31.32996094 69.18181641 31.32996094 69.1640625 32.328125 C70.09089844 32.24433594 71.01773437 32.16054688 71.97265625 32.07421875 C73.17019531 31.97238281 74.36773438 31.87054688 75.6015625 31.765625 C77.39400391 31.60900391 77.39400391 31.60900391 79.22265625 31.44921875 C80.19332031 31.40925781 81.16398437 31.36929688 82.1640625 31.328125 C83.1640625 32.328125 83.1640625 32.328125 83.26171875 35.92578125 C83.25597522 37.41409755 83.24296141 38.90238796 83.2265625 40.390625 C83.2059375 43.01 83.1853125 45.629375 83.1640625 48.328125 C77.8840625 48.328125 72.6040625 48.328125 67.1640625 48.328125 C67.1640625 43.708125 67.1640625 39.088125 67.1640625 34.328125 C62.5440625 34.328125 57.9240625 34.328125 53.1640625 34.328125 C54.84625258 39.96346176 56.23719748 43.85962343 60.1640625 48.328125 C60.1640625 48.988125 60.1640625 49.648125 60.1640625 50.328125 C60.8240625 50.328125 61.4840625 50.328125 62.1640625 50.328125 C63.49374018 52.21183504 64.7267575 54.16408431 65.9140625 56.140625 C66.27040771 56.73375488 66.62675293 57.32688477 66.99389648 57.93798828 C76.43537603 73.76205204 84.95506728 90.28957405 89.1640625 108.328125 C89.47859375 109.37226563 89.793125 110.41640625 90.1171875 111.4921875 C99.57288032 146.13953954 95.14854034 185.88425556 80.1640625 218.328125 C79.72449219 219.28847656 79.28492188 220.24882813 78.83203125 221.23828125 C74.93676085 229.38293754 70.15685245 236.82986227 65.1640625 244.328125 C64.80344727 244.9046582 64.44283203 245.48119141 64.07128906 246.07519531 C63.15255146 247.52596783 62.16376756 248.93191245 61.1640625 250.328125 C60.5040625 250.328125 59.8440625 250.328125 59.1640625 250.328125 C59.1021875 250.885 59.0403125 251.441875 58.9765625 252.015625 C57.8193138 255.30933283 55.68087321 256.92317254 53.1640625 259.328125 C52.21633163 260.44451984 51.27930377 261.57006393 50.3515625 262.703125 C46.61142577 267.11977224 42.29288298 271.87585886 36.984375 274.33984375 C34.81004449 275.2520969 34.81004449 275.2520969 34.1640625 278.328125 C33.1740625 278.328125 32.1840625 278.328125 31.1640625 278.328125 C30.9165625 278.93140625 30.6690625 279.5346875 30.4140625 280.15625 C28.95846277 282.68535453 27.65282041 283.59585007 25.1640625 285.078125 C24.4628125 285.50609375 23.7615625 285.9340625 23.0390625 286.375 C21.1640625 287.328125 21.1640625 287.328125 19.1640625 287.328125 C19.1640625 287.988125 19.1640625 288.648125 19.1640625 289.328125 C16.49801936 290.74597521 13.83124978 292.16242992 11.1640625 293.578125 C10.42027344 293.97386719 9.67648437 294.36960937 8.91015625 294.77734375 C0.46745504 299.25564613 -7.7551073 303.28931123 -16.8359375 306.328125 C-17.77050781 306.658125 -18.70507812 306.988125 -19.66796875 307.328125 C-48.27815307 316.54096423 -88.29614544 319.36297707 -116.8359375 307.328125 C-118.0115625 307.06 -119.1871875 306.791875 -120.3984375 306.515625 C-126.1388317 305.14009658 -131.44010116 302.67757704 -136.8359375 300.328125 C-137.58746094 300.02003906 -138.33898437 299.71195313 -139.11328125 299.39453125 C-146.36147427 296.35757887 -153.07479716 292.30478605 -159.8359375 288.328125 C-160.80015625 287.79316406 -161.764375 287.25820313 -162.7578125 286.70703125 C-163.44359375 286.25199219 -164.129375 285.79695313 -164.8359375 285.328125 C-164.8359375 284.668125 -164.8359375 284.008125 -164.8359375 283.328125 C-165.54105469 283.0909375 -166.24617188 282.85375 -166.97265625 282.609375 C-170.33880618 281.10310327 -172.80576923 279.17227983 -175.6484375 276.828125 C-177.11216797 275.63703125 -177.11216797 275.63703125 -178.60546875 274.421875 C-179.34152344 273.7309375 -180.07757813 273.04 -180.8359375 272.328125 C-180.8359375 271.668125 -180.8359375 271.008125 -180.8359375 270.328125 C-181.7021875 269.956875 -181.7021875 269.956875 -182.5859375 269.578125 C-185.16533729 268.14512512 -186.89715342 266.54387824 -188.8359375 264.328125 C-188.8359375 263.668125 -188.8359375 263.008125 -188.8359375 262.328125 C-190.1559375 261.668125 -191.4759375 261.008125 -192.8359375 260.328125 C-192.8359375 259.668125 -192.8359375 259.008125 -192.8359375 258.328125 C-193.39539063 258.13347656 -193.95484375 257.93882812 -194.53125 257.73828125 C-197.79397753 255.7419344 -199.59600104 252.86928919 -201.7109375 249.765625 C-202.1536499 249.1264917 -202.5963623 248.4873584 -203.05249023 247.82885742 C-203.92998886 246.5592542 -204.80403653 245.28725764 -205.67431641 244.01269531 C-206.59258627 242.68103031 -207.54275018 241.37136216 -208.50390625 240.0703125 C-224.78813713 217.536951 -233.34731167 186.85404681 -233.8359375 159.328125 C-233.85108398 158.53760742 -233.86623047 157.74708984 -233.88183594 156.93261719 C-233.97516927 151.0617232 -233.94081093 145.19856971 -233.8359375 139.328125 C-233.81080078 137.41386719 -233.81080078 137.41386719 -233.78515625 135.4609375 C-232.55848774 103.42736548 -218.09562263 72.38246322 -198.8359375 47.328125 C-198.18753906 46.44640625 -197.53914063 45.5646875 -196.87109375 44.65625 C-194.39285228 41.33746711 -192.01054395 38.30452063 -188.7734375 35.703125 C-186.39242813 33.7780536 -184.69921199 32.08932738 -182.7734375 29.765625 C-180.37329472 26.88041399 -177.93887109 24.48293999 -174.8359375 22.328125 C-174.1759375 22.328125 -173.5159375 22.328125 -172.8359375 22.328125 C-172.5059375 21.338125 -172.1759375 20.348125 -171.8359375 19.328125 C-169.83984375 17.72265625 -169.83984375 17.72265625 -167.3984375 16.140625 C-166.59535156 15.61082031 -165.79226563 15.08101563 -164.96484375 14.53515625 C-162.8359375 13.328125 -162.8359375 13.328125 -160.8359375 13.328125 C-160.8359375 12.668125 -160.8359375 12.008125 -160.8359375 11.328125 C-158.33730626 9.90899949 -155.83709469 8.4927866 -153.3359375 7.078125 C-152.63984375 6.68238281 -151.94375 6.28664063 -151.2265625 5.87890625 C-108.34528001 -18.34107738 -44.23448543 -26.07763053 0 0 Z " fill="#63BDD9" transform="translate(580.8359375,361.671875)"/>
<path d="M0 0 C0.90380859 2.71777344 0.90380859 2.71777344 1.6484375 6.359375 C1.78621109 7.0119931 1.92398468 7.66461121 2.06593323 8.33700562 C2.51435588 10.47235611 2.9446259 12.61094587 3.375 14.75 C3.83131957 16.94766538 4.29214504 19.14435206 4.75346375 21.3409729 C5.06134435 22.80776634 5.36774851 24.27487046 5.67268372 25.74227905 C7.13455715 32.74688973 8.80467077 39.69564636 10.57763672 46.62792969 C11.62651536 50.85730778 12.23188598 54.60119317 12 59 C6.6462535 57.44347945 1.99849053 55.0182491 -2.875 52.375 C-4.050625 51.74464844 -4.050625 51.74464844 -5.25 51.1015625 C-7.16892057 50.0718978 -9.08477603 49.03652433 -11 48 C-13.67140969 51.21193676 -15.91524225 54.38333984 -17.92578125 58.04296875 C-18.46710693 59.02064209 -19.00843262 59.99831543 -19.56616211 61.00561523 C-20.14245361 62.05563721 -20.71874512 63.10565918 -21.3125 64.1875 C-22.56889608 66.45391078 -23.82675465 68.71951132 -25.0859375 70.984375 C-25.40862106 71.56529404 -25.73130463 72.14621307 -26.06376648 72.74473572 C-31.2824416 82.12343232 -36.69713463 91.39065821 -42.078125 100.67675781 C-44.72370658 105.25140929 -47.35386443 109.83485185 -49.98388672 114.41845703 C-51.87690838 117.70723324 -53.78489654 120.98693129 -55.6953125 124.265625 C-57.65759524 127.63929695 -59.56309226 131.02371943 -61.3671875 134.484375 C-63.01574439 137.56803817 -64.58686702 140.4329429 -67 143 C-69.72180897 143.79631872 -71.91723719 143.88409141 -74.7421875 143.7890625 C-77.06669298 143.7812481 -77.06669298 143.7812481 -78.5703125 145.3984375 C-79.82189676 147.20126016 -79.82189676 147.20126016 -80.76953125 149.015625 C-82 151 -82 151 -84.45727539 153.22558594 C-87.31775805 156.34671172 -87.99683888 158.28414692 -88.9140625 162.375 C-89.20023438 163.60863281 -89.48640625 164.84226562 -89.78125 166.11328125 C-90.0596875 167.39589844 -90.338125 168.67851563 -90.625 170 C-90.91117188 171.25167969 -91.19734375 172.50335937 -91.4921875 173.79296875 C-92.62036055 178.74154599 -93.72436695 183.69396629 -94.77246094 188.66015625 C-95.0202832 189.80355469 -95.26810547 190.94695312 -95.5234375 192.125 C-95.73661621 193.13820313 -95.94979492 194.15140625 -96.16943359 195.1953125 C-97.05762516 198.19459077 -98.17620648 200.46214396 -100 203 C-100.66 203 -101.32 203 -102 203 C-102.61705811 201.87078125 -102.61705811 201.87078125 -103.24658203 200.71875 C-111.63306805 185.39196436 -120.13920481 170.16186923 -129.01171875 155.109375 C-136.42656142 142.48211818 -136.42656142 142.48211818 -137.96801758 138.49804688 C-138.99508099 136.01190709 -140.19176229 134.08075075 -141.7421875 131.890625 C-145.27219012 126.71214751 -148.19374549 121.28325594 -151.125 115.75 C-156.68066116 105.38281736 -162.42599605 95.14567062 -168.30029297 84.95654297 C-170.24083749 81.58107699 -172.17019007 78.1993511 -174.09765625 74.81640625 C-174.81338403 73.56086604 -175.52912298 72.30533219 -176.24487305 71.04980469 C-177.29573821 69.20634518 -178.34638647 67.36276459 -179.39614868 65.51867676 C-183.15290626 58.92105154 -186.94568588 52.36250806 -190.95556641 45.91479492 C-192 44 -192 44 -192 42 C-200.58 42.33 -209.16 42.66 -218 43 C-215.4321875 47.4859375 -215.4321875 47.4859375 -212.8125 52.0625 C-204.89722543 65.91041984 -197.00581755 79.77202535 -189.265625 93.71875 C-188.63446777 94.85578369 -188.00331055 95.99281738 -187.35302734 97.16430664 C-186.08062687 99.46309287 -184.81268558 101.76435322 -183.54931641 104.06811523 C-180.61362277 109.40166257 -177.62819287 114.66443146 -174.3828125 119.81640625 C-167.45701473 130.93400367 -164.51942904 137.79824229 -166 151 C-161.05 151 -156.1 151 -151 151 C-150.93489583 154.09244792 -150.86979167 157.18489583 -150.8046875 160.27734375 C-149.87622318 164.57261799 -148.21370944 167.01155134 -145.69873047 170.54663086 C-142.66283436 174.93118389 -140.19583812 179.64546871 -137.625 184.3125 C-136.39034133 186.53442038 -135.15462329 188.75575235 -133.91796875 190.9765625 C-133.27778809 192.12672852 -132.63760742 193.27689453 -131.97802734 194.46191406 C-128.66875315 200.39175627 -125.30573321 206.29100846 -121.9375 212.1875 C-121.60534485 212.7696225 -121.2731897 213.351745 -120.93096924 213.95150757 C-115.66510014 223.17439091 -110.29816147 232.33492887 -104.80834961 241.42651367 C-104.30440674 242.26802979 -103.80046387 243.1095459 -103.28125 243.9765625 C-102.83845703 244.70955566 -102.39566406 245.44254883 -101.93945312 246.19775391 C-101 248 -101 248 -101 250 C-111.44635468 249.7587447 -121.58588478 248.94829193 -131.875 247.0625 C-133.27322998 246.80774902 -133.27322998 246.80774902 -134.69970703 246.54785156 C-139.01840056 245.71778965 -142.95870335 244.78270282 -147 243 C-148.175625 242.731875 -149.35125 242.46375 -150.5625 242.1875 C-156.3028942 240.81197158 -161.60416366 238.34945204 -167 236 C-167.75152344 235.69191406 -168.50304687 235.38382813 -169.27734375 235.06640625 C-176.52553677 232.02945387 -183.23885966 227.97666105 -190 224 C-190.96421875 223.46503906 -191.9284375 222.93007813 -192.921875 222.37890625 C-193.60765625 221.92386719 -194.2934375 221.46882812 -195 221 C-195 220.34 -195 219.68 -195 219 C-195.70511719 218.7628125 -196.41023438 218.525625 -197.13671875 218.28125 C-200.50286868 216.77497827 -202.96983173 214.84415483 -205.8125 212.5 C-207.27623047 211.30890625 -207.27623047 211.30890625 -208.76953125 210.09375 C-209.50558594 209.4028125 -210.24164063 208.711875 -211 208 C-211 207.34 -211 206.68 -211 206 C-211.86625 205.62875 -211.86625 205.62875 -212.75 205.25 C-215.32939979 203.81700012 -217.06121592 202.21575324 -219 200 C-219 199.34 -219 198.68 -219 198 C-220.32 197.34 -221.64 196.68 -223 196 C-223 195.34 -223 194.68 -223 194 C-223.55945313 193.80535156 -224.11890625 193.61070312 -224.6953125 193.41015625 C-227.95804003 191.4138094 -229.76006354 188.54116419 -231.875 185.4375 C-232.5390686 184.47880005 -232.5390686 184.47880005 -233.21655273 183.50073242 C-234.09405136 182.2311292 -234.96809903 180.95913264 -235.83837891 179.68457031 C-236.75664877 178.35290531 -237.70681268 177.04323716 -238.66796875 175.7421875 C-254.95219963 153.208826 -263.51137417 122.52592181 -264 95 C-264.01514648 94.20948242 -264.03029297 93.41896484 -264.04589844 92.60449219 C-264.13923177 86.7335982 -264.10487343 80.87044471 -264 75 C-263.98324219 73.72382813 -263.96648437 72.44765625 -263.94921875 71.1328125 C-263.37806999 56.21767063 -259.15325186 41.80659578 -254.375 27.75 C-254.08608887 26.88608643 -253.79717773 26.02217285 -253.49951172 25.13208008 C-253.21865723 24.3408374 -252.93780273 23.54959473 -252.6484375 22.734375 C-252.40270996 22.03538086 -252.15698242 21.33638672 -251.90380859 20.61621094 C-251 19 -251 19 -248 18 C-245.74601841 17.91019535 -243.48940885 17.88242476 -241.23364258 17.88647461 C-240.55045456 17.88632858 -239.86726654 17.88618256 -239.16337585 17.8860321 C-236.90706193 17.88672831 -234.65083074 17.89450704 -232.39453125 17.90234375 C-230.82940211 17.90420897 -229.26427239 17.90563238 -227.69914246 17.90663147 C-223.58096707 17.91044848 -219.46282698 17.92027182 -215.34466553 17.93133545 C-211.14189125 17.94156709 -206.93911127 17.94613285 -202.73632812 17.95117188 C-194.49086922 17.96189481 -186.245439 17.97896146 -178 18 C-177.55458862 18.80747177 -177.10917725 19.61494354 -176.65026855 20.44688416 C-174.95891875 23.51299603 -173.26750441 26.57907228 -171.5760498 29.64512634 C-170.85125279 30.95897574 -170.12647972 32.27283834 -169.4017334 33.5867157 C-158.68888045 53.00771252 -147.9492764 72.40766452 -136.91674805 91.64941406 C-132.50526787 99.34645563 -128.13968244 107.06775124 -123.8125 114.8125 C-122.96582764 116.32710815 -122.96582764 116.32710815 -122.10205078 117.87231445 C-120.97422046 119.89010129 -119.84645323 121.90792339 -118.71875 123.92578125 C-115.75613564 129.22482103 -112.78845332 134.52093928 -109.8125 139.8125 C-109.27149658 140.77969971 -108.73049316 141.74689941 -108.1730957 142.7434082 C-107.66866943 143.63890381 -107.16424316 144.53439941 -106.64453125 145.45703125 C-105.98481323 146.6322937 -105.98481323 146.6322937 -105.31176758 147.83129883 C-103.99813718 150.00307974 -102.55738714 151.99764511 -101 154 C-100.59910156 153.29842773 -100.19820312 152.59685547 -99.78515625 151.87402344 C-98.93244141 150.38177246 -98.93244141 150.38177246 -98.0625 148.859375 C-97.42304443 147.74030762 -96.78358887 146.62124023 -96.12475586 145.46826172 C-94.6881618 142.95421165 -93.25146318 140.44022138 -91.81469727 137.92626953 C-88.1755668 131.55857439 -84.53742506 125.19032012 -80.90234375 118.8203125 C-73.78569131 106.35165329 -66.64018812 93.90042707 -59.453125 81.47216797 C-54.70885353 73.25675532 -50.02604591 65.00786636 -45.38598633 56.7331543 C-42.41272267 51.44370993 -39.33945187 46.24534127 -36.10375977 41.11132812 C-34.7683546 38.95396918 -34.7683546 38.95396918 -35 36 C-41.93 32.37 -48.86 28.74 -56 25 C-56 24.34 -56 23.68 -56 23 C-43.17264101 16.74787415 -30.168391 10.9700378 -17.05810547 5.34301758 C-16.10494194 4.93348846 -16.10494194 4.93348846 -15.13252258 4.51568604 C-13.39115402 3.76815853 -11.64885371 3.0228026 -9.90649414 2.27758789 C-7.07641472 1.08873313 -7.07641472 1.08873313 -4.79467773 -0.23266602 C-3 -1 -3 -1 0 0 Z " fill="#1A4275" transform="translate(611,426)"/>
<path d="M0 0 C4.39183572 1.8434866 8.27301553 1.6169124 12.9765625 1.453125 C14.69130816 1.40997078 16.40615726 1.37069069 18.12109375 1.3359375 C18.87366455 1.31160645 19.62623535 1.28727539 20.40161133 1.26220703 C22.1640625 1.328125 22.1640625 1.328125 23.1640625 2.328125 C23.30799707 6.66343418 23.20618311 10.98970231 23.1640625 15.328125 C27.4540625 15.658125 31.7440625 15.988125 36.1640625 16.328125 C36.15246094 15.32910156 36.14085937 14.33007812 36.12890625 13.30078125 C36.11988281 12.01042969 36.11085938 10.72007812 36.1015625 9.390625 C36.08996094 8.10285156 36.07835937 6.81507813 36.06640625 5.48828125 C36.1640625 2.328125 36.1640625 2.328125 37.1640625 1.328125 C39.65465164 1.22814858 42.11133645 1.18932873 44.6015625 1.203125 C45.29572266 1.19925781 45.98988281 1.19539063 46.70507812 1.19140625 C51.91078262 1.20148506 51.91078262 1.20148506 54.1640625 2.328125 C54.1640625 6.948125 54.1640625 11.568125 54.1640625 16.328125 C58.7840625 16.328125 63.4040625 16.328125 68.1640625 16.328125 C68.84949393 20.44071359 69.28132437 23.65074638 69.2265625 27.703125 C69.21753906 28.57710938 69.20851563 29.45109375 69.19921875 30.3515625 C69.18181641 31.32996094 69.18181641 31.32996094 69.1640625 32.328125 C70.09089844 32.24433594 71.01773437 32.16054688 71.97265625 32.07421875 C73.17019531 31.97238281 74.36773438 31.87054688 75.6015625 31.765625 C77.39400391 31.60900391 77.39400391 31.60900391 79.22265625 31.44921875 C80.19332031 31.40925781 81.16398437 31.36929688 82.1640625 31.328125 C83.1640625 32.328125 83.1640625 32.328125 83.26171875 35.92578125 C83.25597522 37.41409755 83.24296141 38.90238796 83.2265625 40.390625 C83.2059375 43.01 83.1853125 45.629375 83.1640625 48.328125 C77.8840625 48.328125 72.6040625 48.328125 67.1640625 48.328125 C67.1640625 43.708125 67.1640625 39.088125 67.1640625 34.328125 C62.5440625 34.328125 57.9240625 34.328125 53.1640625 34.328125 C54.84625258 39.96346176 56.23719748 43.85962343 60.1640625 48.328125 C60.1640625 48.988125 60.1640625 49.648125 60.1640625 50.328125 C60.8240625 50.328125 61.4840625 50.328125 62.1640625 50.328125 C63.49374018 52.21183504 64.7267575 54.16408431 65.9140625 56.140625 C66.44422974 57.02053101 66.44422974 57.02053101 66.98510742 57.91821289 C70.20448029 63.30224876 73.23202985 68.7827589 76.1640625 74.328125 C76.69386719 75.27365234 76.69386719 75.27365234 77.234375 76.23828125 C78.1015625 77.828125 78.1015625 77.828125 79.1640625 80.328125 C78.8340625 81.318125 78.5040625 82.308125 78.1640625 83.328125 C76.1640625 79.578125 76.1640625 79.578125 76.1640625 77.328125 C75.5040625 77.328125 74.8440625 77.328125 74.1640625 77.328125 C71.37945203 74.31146366 70.39630805 71.18916106 69.1640625 67.328125 C68.5040625 66.338125 67.8440625 65.348125 67.1640625 64.328125 C67.1640625 63.338125 67.1640625 62.348125 67.1640625 61.328125 C66.1740625 60.998125 65.1840625 60.668125 64.1640625 60.328125 C63.8340625 58.678125 63.5040625 57.028125 63.1640625 55.328125 C62.5040625 55.328125 61.8440625 55.328125 61.1640625 55.328125 C59.65625 53.578125 59.65625 53.578125 58.0390625 51.328125 C57.23082031 50.214375 57.23082031 50.214375 56.40625 49.078125 C55.99632812 48.500625 55.58640625 47.923125 55.1640625 47.328125 C54.3596875 47.67875 53.5553125 48.029375 52.7265625 48.390625 C48.26060142 49.56587792 44.66568695 49.06839213 40.1640625 48.328125 C40.1640625 49.978125 40.1640625 51.628125 40.1640625 53.328125 C38.1640625 50.328125 38.1640625 50.328125 38.1640625 47.328125 C31.11243665 49.9255107 24.23300918 52.61337922 17.578125 56.1171875 C11.0199627 59.40688057 4.11847685 61.92379314 -2.72460938 64.546875 C-8.05296859 66.60229767 -13.32758552 68.76983623 -18.5949707 70.9765625 C-24.41012015 73.40162219 -30.24949161 75.76739049 -36.0859375 78.140625 C-37.33204973 78.64774104 -38.57814357 79.15490229 -39.82421875 79.66210938 C-42.82794559 80.88455634 -45.83185425 82.10655423 -48.8359375 83.328125 C-46.16216442 85.40743272 -43.4745248 87.17690198 -40.5078125 88.80859375 C-39.70859375 89.25009766 -38.909375 89.69160156 -38.0859375 90.14648438 C-37.2609375 90.59830078 -36.4359375 91.05011719 -35.5859375 91.515625 C-34.74546875 91.97904297 -33.905 92.44246094 -33.0390625 92.91992188 C-30.97282586 94.05870003 -28.90509556 95.19466641 -26.8359375 96.328125 C-28.12701941 99.71815221 -29.59375291 102.84973331 -31.3828125 106.00390625 C-31.89094482 106.90214111 -32.39907715 107.80037598 -32.92260742 108.72583008 C-33.47150635 109.6877124 -34.02040527 110.64959473 -34.5859375 111.640625 C-35.15868408 112.64955811 -35.73143066 113.65849121 -36.3215332 114.69799805 C-41.07930666 123.05621382 -45.92840255 131.36000474 -50.79150391 139.65722656 C-55.58539564 147.85336551 -60.21985125 156.129477 -64.79394531 164.44970703 C-66.44509085 167.42625664 -68.13974163 170.37705119 -69.8359375 173.328125 C-70.4959375 173.328125 -71.1559375 173.328125 -71.8359375 173.328125 C-72.40755615 172.29764038 -72.40755615 172.29764038 -72.99072266 171.24633789 C-80.48791928 157.73368816 -88.00162051 144.2307989 -95.56079102 130.75268555 C-99.86090184 123.08102718 -104.13334345 115.39429614 -108.3984375 107.703125 C-113.7335465 98.08441252 -119.11145614 88.4911372 -124.53735352 78.92333984 C-125.50838064 77.21106942 -126.47809926 75.49805605 -127.44628906 73.78417969 C-128.39641421 72.10493532 -129.35174111 70.42862632 -130.31152344 68.75488281 C-131.00036621 67.54203613 -131.00036621 67.54203613 -131.703125 66.3046875 C-132.1141748 65.58619629 -132.52522461 64.86770508 -132.94873047 64.12744141 C-133.8359375 62.328125 -133.8359375 62.328125 -133.8359375 60.328125 C-157.9259375 60.328125 -182.0159375 60.328125 -206.8359375 60.328125 C-205.05281113 55.87030909 -203.06880776 52.70359817 -200.1484375 49.015625 C-199.70145508 48.44457031 -199.25447266 47.87351562 -198.79394531 47.28515625 C-193.58121978 40.66914854 -188.41151186 34.61717394 -181.8359375 29.328125 C-180.9696875 28.44125 -180.1034375 27.554375 -179.2109375 26.640625 C-177.06622232 24.55234969 -175.44707486 23.63369368 -172.8359375 22.328125 C-172.5059375 21.338125 -172.1759375 20.348125 -171.8359375 19.328125 C-169.83984375 17.72265625 -169.83984375 17.72265625 -167.3984375 16.140625 C-166.59535156 15.61082031 -165.79226563 15.08101563 -164.96484375 14.53515625 C-162.8359375 13.328125 -162.8359375 13.328125 -160.8359375 13.328125 C-160.8359375 12.668125 -160.8359375 12.008125 -160.8359375 11.328125 C-158.33730626 9.90899949 -155.83709469 8.4927866 -153.3359375 7.078125 C-152.63984375 6.68238281 -151.94375 6.28664063 -151.2265625 5.87890625 C-108.34528001 -18.34107738 -44.23448543 -26.07763053 0 0 Z " fill="#68C3DD" transform="translate(580.8359375,361.671875)"/>
<path d="M0 0 C0.63725963 1.59933607 1.25893354 3.20488132 1.875 4.8125 C2.22304688 5.70582031 2.57109375 6.59914063 2.9296875 7.51953125 C4.10627255 11.34557971 4.79266736 15.12130458 5.47265625 19.06079102 C6.34616224 23.92937372 7.46758988 28.73977134 8.5625 33.5625 C11.18245491 45.23982001 13.7378504 56.93053008 16.25656128 68.63009644 C16.66843386 70.54141689 17.08145656 72.45248987 17.49563599 74.36331177 C18.08086206 77.06447944 18.66205698 79.766484 19.2421875 82.46875 C19.42002274 83.28633286 19.59785797 84.10391571 19.78108215 84.9462738 C20.4371034 88.01980278 21 90.84743844 21 94 C18.21047251 92.6289694 15.48553036 91.1773984 12.77734375 89.65234375 C11.99166016 89.21212891 11.20597656 88.77191406 10.39648438 88.31835938 C8.75252351 87.39518199 7.10929744 86.47069492 5.46679688 85.54492188 C4.68240234 85.10599609 3.89800781 84.66707031 3.08984375 84.21484375 C2.37691162 83.81386475 1.66397949 83.41288574 0.92944336 82.99975586 C-1.12436307 81.87205586 -1.12436307 81.87205586 -4 81 C-4.20238281 81.76828125 -4.40476562 82.5365625 -4.61328125 83.328125 C-6.56254741 88.48956216 -9.36598446 93.0209972 -12.1875 97.75 C-13.45381802 99.89542443 -14.7194174 102.04127317 -15.984375 104.1875 C-16.64244141 105.30125 -17.30050781 106.415 -17.97851562 107.5625 C-21.33515388 113.27040659 -24.63548826 119.01034259 -27.9375 124.75 C-29.70684881 127.82379038 -31.47658232 130.89710196 -33.25976562 133.96289062 C-34.4794265 136.09147947 -35.66838029 138.23782038 -36.83398438 140.39648438 C-37.43404297 141.48767578 -38.03410156 142.57886719 -38.65234375 143.703125 C-39.184646 144.69473633 -39.71694824 145.68634766 -40.26538086 146.70800781 C-42 149 -42 149 -44.37866211 149.8347168 C-46.625 150 -46.625 150 -48.9140625 149.94140625 C-52.18639259 150.03332563 -53.80051006 151.731776 -56 154 C-57.14814997 156.29629994 -57.30769809 158.07698086 -57.5625 160.625 C-57.64628906 161.44226563 -57.73007812 162.25953125 -57.81640625 163.1015625 C-57.87699219 163.72804688 -57.93757812 164.35453125 -58 165 C-58.804375 164.195625 -59.60875 163.39125 -60.4375 162.5625 C-64.26663263 159.31186942 -68.1211256 159.11926137 -73 159 C-72.40482565 155.0285883 -71.16709342 152.12521442 -69.19140625 148.640625 C-68.61438965 147.61614258 -68.03737305 146.59166016 -67.44287109 145.53613281 C-66.82234863 144.45170898 -66.20182617 143.36728516 -65.5625 142.25 C-64.92650879 141.1269043 -64.29051758 140.00380859 -63.63525391 138.84667969 C-59.71221526 131.93856977 -55.73152053 125.06586043 -51.67871094 118.2331543 C-48.50100131 112.87414641 -45.39700877 107.47563002 -42.3125 102.0625 C-41.31120903 100.30858741 -40.3099066 98.55468135 -39.30859375 96.80078125 C-37.54850518 93.71670834 -35.79051158 90.63148159 -34.03564453 87.54443359 C-32.32442423 84.53433492 -30.60758736 81.52749453 -28.88754272 78.52243042 C-28.21487148 77.34493642 -27.54414052 76.16633176 -26.87539673 74.98660278 C-25.94011157 73.33720942 -24.99756022 71.69194273 -24.0546875 70.046875 C-23.24233643 68.62133301 -23.24233643 68.62133301 -22.41357422 67.16699219 C-21 65 -21 65 -19 64 C-16.66162109 64.98803711 -16.66162109 64.98803711 -13.7734375 66.52734375 C-12.7421875 67.07197266 -11.7109375 67.61660156 -10.6484375 68.17773438 C-9.02808594 69.04881836 -9.02808594 69.04881836 -7.375 69.9375 C-6.28703125 70.51435547 -5.1990625 71.09121094 -4.078125 71.68554688 C-1.38154938 73.11662429 1.31084969 74.55503159 4 76 C2.79382116 70.32933781 1.58520182 64.6592027 0.37451172 58.98950195 C-0.03530645 57.06873963 -0.44450684 55.14784538 -0.85302734 53.22680664 C-3.42896734 41.11609123 -6.10398893 29.03841843 -9 17 C-14.46006968 18.67418326 -19.57908446 20.95106189 -24.78125 23.28125 C-25.71296021 23.69540161 -26.64467041 24.10955322 -27.60461426 24.53625488 C-30.57092087 25.85487563 -33.53564545 27.17699725 -36.5 28.5 C-40.40485013 30.24274952 -44.31129157 31.98185778 -48.21875 33.71875 C-49.10953247 34.11775513 -50.00031494 34.51676025 -50.91809082 34.92785645 C-55.22672652 36.842691 -59.4838059 38.61523075 -64 40 C-64 40.66 -64 41.32 -64 42 C-63.18273437 42.23460937 -62.36546875 42.46921875 -61.5234375 42.7109375 C-57.26928005 44.26733657 -53.53626604 46.36169958 -49.625 48.625 C-48.88894531 49.04523438 -48.15289063 49.46546875 -47.39453125 49.8984375 C-45.5936235 50.92752764 -43.79642682 51.96310756 -42 53 C-42.55281492 57.74877081 -44.72903534 61.26216386 -47.1875 65.25 C-51.60977995 72.58562834 -55.83827791 80.01364165 -60 87.5 C-64.26091556 95.14667444 -68.57191926 102.75163473 -73.04223633 110.27758789 C-76.99832929 116.95502928 -80.84380186 123.69500049 -84.6875 130.4375 C-90.26654896 140.22294298 -95.86709365 149.99544654 -101.5 159.75 C-102.15315186 160.88107178 -102.80630371 162.01214355 -103.47924805 163.17749023 C-104.98570196 165.78526177 -106.49256615 168.39279484 -108 171 C-108.99 171 -109.98 171 -111 171 C-111.3717334 170.30140869 -111.7434668 169.60281738 -112.12646484 168.88305664 C-121.32917865 151.58986981 -121.32917865 151.58986981 -131.10351562 134.61645508 C-135.00407334 128.07391333 -138.69048531 121.41592955 -142.375 114.75 C-146.83900214 106.67505618 -151.33367786 98.62131981 -155.9375 90.625 C-161.48865577 80.97565638 -166.86661036 71.23393534 -172.21850586 61.47314453 C-176.18569454 54.2441382 -176.18569454 54.2441382 -180.26367188 47.07763672 C-180.6347406 46.43636337 -181.00580933 45.79509003 -181.38812256 45.13438416 C-182.10476853 43.89996436 -182.82519845 42.66773157 -183.54986572 41.43800354 C-186 37.21945967 -186 37.21945967 -186 35 C-221.64 35.495 -221.64 35.495 -258 36 C-254.36738713 27.82662103 -250.20906913 19.89200463 -246 12 C-209.37 12.495 -209.37 12.495 -172 13 C-167.71 20.92 -163.42 28.84 -159 37 C-154.20309989 45.51657712 -154.20309989 45.51657712 -149.3828125 54.01953125 C-145.71298901 60.48966926 -142.10514756 66.99366587 -138.5 73.5 C-133.71962301 82.12250892 -128.91533792 90.73054187 -124.0625 99.3125 C-123.26453003 100.72438599 -123.26453003 100.72438599 -122.45043945 102.16479492 C-120.12267908 106.27654908 -117.78515354 110.38181088 -115.4140625 114.46875 C-115.03241943 115.12834717 -114.65077637 115.78794434 -114.25756836 116.4675293 C-113.27344475 118.16431737 -112.28348338 119.85771604 -111.29296875 121.55078125 C-110 124 -110 124 -110 126 C-109.34 126 -108.68 126 -108 126 C-107.63648438 124.74123047 -107.63648438 124.74123047 -107.265625 123.45703125 C-105.84212339 119.56876297 -103.89933575 116.20149336 -101.75 112.6875 C-97.35632008 105.36907196 -93.14910162 97.95960294 -89 90.5 C-81.90836491 77.77451866 -74.64649103 65.16271897 -66.9609375 52.78515625 C-65.84200503 51.04438215 -65.84200503 51.04438215 -66 49 C-73.26 45.04 -80.52 41.08 -88 37 C-86.37302441 33.74604881 -82.87875596 33.17100353 -79.6328125 31.91796875 C-78.88345428 31.62191238 -78.13409607 31.32585602 -77.36203003 31.02082825 C-74.9521983 30.06985016 -72.53886906 29.12817775 -70.125 28.1875 C-66.9802458 26.95567646 -63.83716681 25.71966921 -60.6953125 24.48046875 C-59.9350325 24.18111923 -59.1747525 23.88176971 -58.39143372 23.573349 C-53.28441261 21.54851389 -48.26527183 19.38521641 -43.30004883 17.03027344 C-40.76222904 15.89349396 -38.19122813 14.96716807 -35.5625 14.0625 C-30.50098715 12.27946706 -25.83989602 9.97791703 -21.07421875 7.5234375 C-16.92937665 5.46944968 -12.68358109 3.71814509 -8.3984375 1.98046875 C-3.55378486 0 -3.55378486 0 0 0 Z " fill="#C7E9F2" transform="translate(619,409)"/>
<path d="M0 0 C8.91 0 17.82 0 27 0 C34.8059555 13.6148029 42.59948959 27.2345281 50.25 40.9375 C55.95000192 51.14448018 61.70924583 61.31532178 67.53564453 71.45068359 C69.06751478 74.11753741 70.59424236 76.78730138 72.12109375 79.45703125 C73.12210536 81.20068763 74.12339681 82.94418338 75.125 84.6875 C75.58672607 85.49622559 76.04845215 86.30495117 76.52416992 87.13818359 C76.95189697 87.8802002 77.37962402 88.6222168 77.8203125 89.38671875 C78.19430176 90.03858154 78.56829102 90.69044434 78.95361328 91.36206055 C80.02472508 93.16819782 80.02472508 93.16819782 82 95 C82.6647359 96.58064238 83.32746907 98.1621475 83.98193359 99.74707031 C86.25972037 104.78769774 89.10538699 109.55617403 91.8125 114.375 C92.47652862 115.56249973 93.14026106 116.75016512 93.80371094 117.93798828 C95.17593436 120.39335735 96.55023843 122.84754411 97.92626953 125.30078125 C99.95420215 128.91667613 101.9755989 132.53619542 103.99609375 136.15625 C105.24719871 138.39594346 106.49849306 140.63553114 107.75 142.875 C108.33370361 143.91962402 108.91740723 144.96424805 109.51879883 146.04052734 C110.06431396 147.0145752 110.6098291 147.98862305 111.171875 148.9921875 C111.6472168 149.84151855 112.12255859 150.69084961 112.61230469 151.56591797 C113.59770327 153.29435284 114.62373462 154.99990072 115.67675781 156.68798828 C117 159 117 159 117 161 C117.66 161 118.32 161 119 161 C119.28875 160.195625 119.5775 159.39125 119.875 158.5625 C121 156 121 156 123 155 C123.11214844 155.85271484 123.11214844 155.85271484 123.2265625 156.72265625 C124.27273382 162.86634859 126.23645141 166.90032004 131 171 C133.68479876 172.46425533 133.68479876 172.46425533 136 173 C135.0586519 179.23256743 131.83436768 184.0939201 128.75 189.5 C128.17636719 190.53253906 127.60273437 191.56507813 127.01171875 192.62890625 C124.12075172 197.73254964 121.47239948 202.16651473 117 206 C113.90732569 200.66336866 110.81719212 195.32527422 107.72851562 189.98632812 C106.56387178 187.97419203 105.39849199 185.96248176 104.23242188 183.95117188 C97.25285529 171.91198421 90.33062549 159.84702773 83.5625 147.6875 C76.84261125 134.10727649 76.84261125 134.10727649 68 122 C67.85606543 117.66469082 67.95787939 113.33842269 68 109 C63.05 109 58.1 109 53 109 C53.04125 106.73125 53.0825 104.4625 53.125 102.125 C52.77837045 92.41436354 48.52645302 85.55906248 43.51513672 77.47949219 C40.82509414 73.07728908 38.33497749 68.56205445 35.8125 64.0625 C34.70344406 62.10398595 33.59406154 60.14565682 32.484375 58.1875 C28.80276654 51.66842032 25.18419097 45.1149877 21.5625 38.5625 C15.9261176 28.36805719 10.1405697 18.27705348 4.21508789 8.24829102 C3.66071045 7.30783936 3.10633301 6.3673877 2.53515625 5.3984375 C2.044104 4.57005371 1.55305176 3.74166992 1.04711914 2.88818359 C0 1 0 1 0 0 Z " fill="#B7E1EE" transform="translate(392,468)"/>
<path d="M0 0 C2.62527189 -0.05382106 5.24944713 -0.09358313 7.875 -0.125 C8.62136719 -0.14175781 9.36773438 -0.15851562 10.13671875 -0.17578125 C12.09194461 -0.1933959 14.04742021 -0.10320189 16 0 C18 2 18 2 18.125 4.625 C18.08375 5.40875 18.0425 6.1925 18 7 C22.20034027 7.00533619 26.39803956 6.97169522 30.59765625 6.90234375 C32.02529505 6.88420678 33.45310912 6.87661116 34.88085938 6.87988281 C36.93757048 6.88274731 38.99066592 6.8473749 41.046875 6.8046875 C42.28276367 6.79421387 43.51865234 6.78374023 44.79199219 6.77294922 C48.27941838 6.29756181 48.27941838 6.29756181 50.20947266 2.99072266 C50.80034668 2.00378418 51.3912207 1.0168457 52 0 C54.86555221 -0.52213967 56.80165863 -0.6730784 59.625 -0.5 C60.6459375 -0.48453125 60.6459375 -0.48453125 61.6875 -0.46875 C66.68941327 -0.31058673 66.68941327 -0.31058673 69 2 C69 3.32 69 4.64 69 6 C69.763125 6.165 70.52625 6.33 71.3125 6.5 C75.21319925 8.67713446 75.7698983 11.91983297 77 16 C78.17187272 20.45633674 79.19242221 24.93876558 80.1875 29.4375 C80.46013672 30.61376953 80.73277344 31.79003906 81.01367188 33.00195312 C84.57384393 48.96472957 84.57384393 48.96472957 81.25 55.375 C76.64285714 60.75 76.64285714 60.75 72.125 61.4375 C67.21353131 60.74989438 64.35931023 58.75537964 61.32421875 54.8359375 C59.11734942 51.60200488 57.24243635 48.72730906 56 45 C34.22 44.505 34.22 44.505 12 44 C11.01 46.475 11.01 46.475 10 49 C8.4140625 51.38671875 8.4140625 51.38671875 6.625 53.6875 C6.03976562 54.45449219 5.45453125 55.22148438 4.8515625 56.01171875 C1.96738802 59.1088597 -0.2012633 59.89646006 -4.375 60.4375 C-9.1853299 59.85694294 -10.61392593 58.38607407 -14 55 C-18.46182025 46.0763595 -13.33450408 31.1708426 -11 22 C-10.67 21.34 -10.34 20.68 -10 20 C-9.89841313 18.56367455 -9.81768573 17.12582171 -9.75 15.6875 C-9.38156492 11.93671013 -9.06754318 11.08313007 -6.5625 8 C-4 6 -4 6 -2 5 C-1.27840576 3.35636866 -0.60648579 1.68949614 0 0 Z " fill="#FAFBFB" transform="translate(537,575)"/>
<path d="M0 0 C0.66 0.33 1.32 0.66 2 1 C1.01 2.65 0.02 4.3 -1 6 C-0.01 6 0.98 6 2 6 C2.3125 8.3125 2.3125 8.3125 2 11 C-0.375 12.625 -0.375 12.625 -3 14 C-5.19192365 17.28788548 -5.30608569 19.49194263 -5.65625 23.34375 C-6.17171469 27.32688626 -7.23142953 31.13948202 -8.234375 35.0234375 C-10.26289425 42.90982356 -12.10731907 50.8137483 -11 59 C-9.19881522 62.00197464 -8.09667268 63.45166366 -5 65 C-0.50312618 65.43239171 2.76380428 65.24763655 6.54321289 62.61083984 C8.18136013 60.98697149 8.18136013 60.98697149 9.04858398 58.37744141 C10.61245911 54.69941074 11.95570789 52.6299724 15 50 C21.1030303 48.11152472 27.67746292 48.46271349 33.99731445 48.62084961 C37.06148472 48.68747792 40.10975653 48.64179705 43.17382812 48.58398438 C57.30422632 48.56787292 57.30422632 48.56787292 61.62084961 52.21337891 C63.15642825 54.78996021 64.08912963 57.15467154 65 60 C68.68331353 64.53330896 71.46385882 65.80593033 77 67 C76.505 68.485 76.505 68.485 76 70 C77.65 70 79.3 70 81 70 C79.515 70.495 79.515 70.495 78 71 C77.5359375 71.93585938 77.5359375 71.93585938 77.0625 72.890625 C75.7620972 75.47230703 74.46252151 76.28335116 72 77.75 C71.29875 78.17796875 70.5975 78.6059375 69.875 79.046875 C68 80 68 80 66 80 C66 80.66 66 81.32 66 82 C63.33395686 83.41785021 60.66718728 84.83430492 58 86.25 C57.25621094 86.64574219 56.51242187 87.04148437 55.74609375 87.44921875 C47.30339254 91.92752113 39.0808302 95.96118623 30 99 C28.59814453 99.495 28.59814453 99.495 27.16796875 100 C18.8756443 102.67023278 10.47968683 103.99047582 1.875 105.25 C0.69558838 105.4253125 -0.48382324 105.600625 -1.69897461 105.78125 C-9.18090357 106.81778006 -16.44974986 107.21734784 -24 107 C-23.32165669 103.22646824 -21.62594763 100.38231705 -19.69140625 97.09765625 C-19.02689453 95.96005859 -18.36238281 94.82246094 -17.67773438 93.65039062 C-16.97308648 92.45417355 -16.26800423 91.25821223 -15.5625 90.0625 C-14.18465593 87.7224228 -12.81194843 85.37953962 -11.44140625 83.03515625 C-10.82982666 81.9975415 -10.21824707 80.95992676 -9.58813477 79.89086914 C-8.16605121 77.3022617 -7.02289164 74.76642078 -6 72 C-6.74894531 71.90589844 -7.49789062 71.81179688 -8.26953125 71.71484375 C-13.04369264 70.46495601 -15.37261493 67.00810273 -18 63 C-22.12657059 54.65307313 -18.73530978 45.18806406 -16.64404297 36.67626953 C-15.97221733 33.8845513 -15.35842857 31.08435979 -14.75390625 28.27734375 C-14.33686732 26.39302314 -13.91891954 24.50890341 -13.5 22.625 C-13.21660767 21.29698364 -13.21660767 21.29698364 -12.92749023 19.94213867 C-11.46063173 13.58943276 -9.59140899 9.727606 -4 6 C-2.9590934 4.35857037 -1.95495674 2.69287785 -1 1 C-0.67 0.67 -0.34 0.34 0 0 Z " fill="#3C9CCE" transform="translate(534,569)"/>
<path d="M0 0 C3.21614396 2.14409598 3.64492384 3.30379401 5.01708984 6.74707031 C7.22603079 11.81018683 10.10963039 16.56372754 12.8125 21.375 C13.47652862 22.56249973 14.14026106 23.75016512 14.80371094 24.93798828 C16.17593436 27.39335735 17.55023843 29.84754411 18.92626953 32.30078125 C20.95420215 35.91667613 22.9755989 39.53619542 24.99609375 43.15625 C26.24719871 45.39594346 27.49849306 47.63553114 28.75 49.875 C29.33370361 50.91962402 29.91740723 51.96424805 30.51879883 53.04052734 C31.06431396 54.0145752 31.6098291 54.98862305 32.171875 55.9921875 C32.6472168 56.84151855 33.12255859 57.69084961 33.61230469 58.56591797 C34.59770327 60.29435284 35.62373462 61.99990072 36.67675781 63.68798828 C38 66 38 66 38 68 C38.66 68 39.32 68 40 68 C40.28875 67.195625 40.5775 66.39125 40.875 65.5625 C42 63 42 63 44 62 C44.07476563 62.56847656 44.14953125 63.13695312 44.2265625 63.72265625 C45.27273382 69.86634859 47.23645141 73.90032004 52 78 C54.68479876 79.46425533 54.68479876 79.46425533 57 80 C56.0586519 86.23256743 52.83436768 91.0939201 49.75 96.5 C49.17636719 97.53253906 48.60273437 98.56507813 48.01171875 99.62890625 C45.12075172 104.73254964 42.47239948 109.16651473 38 113 C34.90732569 107.66336866 31.81719212 102.32527422 28.72851562 96.98632812 C27.56387178 94.97419203 26.39849199 92.96248176 25.23242188 90.95117188 C18.25285529 78.91198421 11.33062549 66.84702773 4.5625 54.6875 C-2.15738875 41.10727649 -2.15738875 41.10727649 -11 29 C-11.08758003 27.00035018 -11.10696576 24.9976389 -11.09765625 22.99609375 C-11.09443359 21.78115234 -11.09121094 20.56621094 -11.08789062 19.31445312 C-11.07951172 18.03505859 -11.07113281 16.75566406 -11.0625 15.4375 C-11.05798828 14.15423828 -11.05347656 12.87097656 -11.04882812 11.54882812 C-11.03699545 8.36583978 -11.02051068 5.18294238 -11 2 C-7.37 2 -3.74 2 0 2 C0 1.34 0 0.68 0 0 Z " fill="#9CD4E8" transform="translate(471,561)"/>
<path d="M0 0 C1.24265625 -0.00257813 2.4853125 -0.00515625 3.765625 -0.0078125 C6.75 0.125 6.75 0.125 7.75 1.125 C7.89393457 5.46030918 7.79212061 9.78657731 7.75 14.125 C12.04 14.455 16.33 14.785 20.75 15.125 C20.73839844 14.12597656 20.72679687 13.12695312 20.71484375 12.09765625 C20.70582031 10.80730469 20.69679688 9.51695312 20.6875 8.1875 C20.67589844 6.89972656 20.66429687 5.61195313 20.65234375 4.28515625 C20.75 1.125 20.75 1.125 21.75 0.125 C24.24058914 0.02502358 26.69727395 -0.01379627 29.1875 0 C29.88166016 -0.00386719 30.57582031 -0.00773437 31.29101562 -0.01171875 C36.49672012 -0.00163994 36.49672012 -0.00163994 38.75 1.125 C38.75 5.745 38.75 10.365 38.75 15.125 C43.37 15.125 47.99 15.125 52.75 15.125 C53.43543143 19.23758859 53.86726187 22.44762138 53.8125 26.5 C53.80347656 27.37398438 53.79445313 28.24796875 53.78515625 29.1484375 C53.77355469 29.80070312 53.76195312 30.45296875 53.75 31.125 C55.14025391 30.99931641 55.14025391 30.99931641 56.55859375 30.87109375 C57.75613281 30.76925781 58.95367188 30.66742188 60.1875 30.5625 C61.38246094 30.45808594 62.57742188 30.35367187 63.80859375 30.24609375 C64.77925781 30.20613281 65.74992188 30.16617187 66.75 30.125 C67.75 31.125 67.75 31.125 67.84765625 34.72265625 C67.84191272 36.21097255 67.82889891 37.69926296 67.8125 39.1875 C67.791875 41.806875 67.77125 44.42625 67.75 47.125 C62.47 47.125 57.19 47.125 51.75 47.125 C51.75 42.505 51.75 37.885 51.75 33.125 C47.13 33.125 42.51 33.125 37.75 33.125 C39.43219008 38.76033676 40.82313498 42.65649843 44.75 47.125 C44.75 47.785 44.75 48.445 44.75 49.125 C45.41 49.125 46.07 49.125 46.75 49.125 C48.07967768 51.00871004 49.312695 52.96095931 50.5 54.9375 C50.85344482 55.524104 51.20688965 56.11070801 51.57104492 56.71508789 C54.79041779 62.09912376 57.81796735 67.5796339 60.75 73.125 C61.10320312 73.75535156 61.45640625 74.38570313 61.8203125 75.03515625 C62.6875 76.625 62.6875 76.625 63.75 79.125 C63.255 80.61 63.255 80.61 62.75 82.125 C60.75 78.375 60.75 78.375 60.75 76.125 C60.09 76.125 59.43 76.125 58.75 76.125 C55.96538953 73.10833866 54.98224555 69.98603606 53.75 66.125 C53.09 65.135 52.43 64.145 51.75 63.125 C51.75 62.135 51.75 61.145 51.75 60.125 C50.76 59.795 49.77 59.465 48.75 59.125 C48.42 57.475 48.09 55.825 47.75 54.125 C47.09 54.125 46.43 54.125 45.75 54.125 C44.2421875 52.375 44.2421875 52.375 42.625 50.125 C42.08617187 49.3825 41.54734375 48.64 40.9921875 47.875 C40.58226562 47.2975 40.17234375 46.72 39.75 46.125 C38.945625 46.475625 38.14125 46.82625 37.3125 47.1875 C32.84653892 48.36275292 29.25162445 47.86526713 24.75 47.125 C24.75 48.775 24.75 50.425 24.75 52.125 C22.75 49.125 22.75 49.125 22.75 46.125 C21.76 45.63 21.76 45.63 20.75 45.125 C21.08 40.835 21.41 36.545 21.75 32.125 C19.831875 32.33125 17.91375 32.5375 15.9375 32.75 C10.125 33.375 10.125 33.375 6.75 31.125 C6.45703125 27.8671875 6.45703125 27.8671875 6.5625 24 C6.58957031 22.71867187 6.61664062 21.43734375 6.64453125 20.1171875 C6.67933594 19.12976563 6.71414063 18.14234375 6.75 17.125 C2.46 17.125 -1.83 17.125 -6.25 17.125 C-6.25 16.795 -6.25 16.465 -6.25 16.125 C-1.96 16.125 2.33 16.125 6.75 16.125 C6.75 11.505 6.75 6.885 6.75 2.125 C2.13 2.125 -2.49 2.125 -7.25 2.125 C-7.25 6.745 -7.25 11.365 -7.25 16.125 C-7.58 16.125 -7.91 16.125 -8.25 16.125 C-8.25 12.165 -8.25 8.205 -8.25 4.125 C-9.57 3.795 -10.89 3.465 -12.25 3.125 C-12.25 2.465 -12.25 1.805 -12.25 1.125 C-8.1221011 0.13241362 -4.2391109 -0.00886843 0 0 Z " fill="#6BCDE1" transform="translate(596.25,362.875)"/>
<path d="M0 0 C3.3 0 6.6 0 10 0 C10 0.33 10 0.66 10 1 C8.6078125 1.3403125 8.6078125 1.3403125 7.1875 1.6875 C3.31689068 3.28128031 2.87639119 4.34254231 1 8 C0.09494051 10.27204844 -0.7565954 12.56591911 -1.5625 14.875 C-1.97628906 16.04804688 -2.39007813 17.22109375 -2.81640625 18.4296875 C-16.17425141 58.72364948 -10.51222884 105.32358757 7.94433594 142.92382812 C27.61471077 181.51523017 62.69906525 207.35848437 103 221 C117.7323488 225.68050003 133.61162236 227.33294028 149 228 C149.33 228.99 149.66 229.98 150 231 C139.55364532 230.7587447 129.41411522 229.94829193 119.125 228.0625 C117.72677002 227.80774902 117.72677002 227.80774902 116.30029297 227.54785156 C111.98159944 226.71778965 108.04129665 225.78270282 104 224 C102.824375 223.731875 101.64875 223.46375 100.4375 223.1875 C94.6971058 221.81197158 89.39583634 219.34945204 84 217 C83.24847656 216.69191406 82.49695313 216.38382813 81.72265625 216.06640625 C74.47446323 213.02945387 67.76114034 208.97666105 61 205 C60.03578125 204.46503906 59.0715625 203.93007813 58.078125 203.37890625 C57.39234375 202.92386719 56.7065625 202.46882812 56 202 C56 201.34 56 200.68 56 200 C55.29488281 199.7628125 54.58976562 199.525625 53.86328125 199.28125 C50.49713132 197.77497827 48.03016827 195.84415483 45.1875 193.5 C43.72376953 192.30890625 43.72376953 192.30890625 42.23046875 191.09375 C41.49441406 190.4028125 40.75835937 189.711875 40 189 C40 188.34 40 187.68 40 187 C39.13375 186.62875 39.13375 186.62875 38.25 186.25 C35.67060021 184.81700012 33.93878408 183.21575324 32 181 C32 180.34 32 179.68 32 179 C30.68 178.34 29.36 177.68 28 177 C28 176.34 28 175.68 28 175 C27.44054687 174.80535156 26.88109375 174.61070312 26.3046875 174.41015625 C23.04195997 172.4138094 21.23993646 169.54116419 19.125 166.4375 C18.4609314 165.47880005 18.4609314 165.47880005 17.78344727 164.50073242 C16.90594864 163.2311292 16.03190097 161.95913264 15.16162109 160.68457031 C14.24335123 159.35290531 13.29318732 158.04323716 12.33203125 156.7421875 C-3.95219963 134.208826 -12.51137417 103.52592181 -13 76 C-13.01514648 75.20948242 -13.03029297 74.41896484 -13.04589844 73.60449219 C-13.13923177 67.7335982 -13.10487343 61.87044471 -13 56 C-12.98324219 54.72382813 -12.96648437 53.44765625 -12.94921875 52.1328125 C-12.25610092 34.03253533 -6.27083496 16.82463214 0 0 Z " fill="#093065" transform="translate(360,445)"/>
<path d="M0 0 C2.97 0 5.94 0 9 0 C9 2.31 9 4.62 9 7 C11.31 7 13.62 7 16 7 C16 9.64 16 12.28 16 15 C13.36 15 10.72 15 8 15 C8 17.31 8 19.62 8 22 C5.69 22 3.38 22 1 22 C1 19.69 1 17.38 1 15 C-1.64 15 -4.28 15 -7 15 C-7 12.36 -7 9.72 -7 7 C-4.69 7 -2.38 7 0 7 C0 4.69 0 2.38 0 0 Z " fill="#4CAAD3" transform="translate(542,589)"/>
<path d="M0 0 C1.90072266 0.02126953 1.90072266 0.02126953 3.83984375 0.04296875 C5.74443359 0.05263672 5.74443359 0.05263672 7.6875 0.0625 C10.77734375 0.23046875 10.77734375 0.23046875 11.77734375 1.23046875 C11.85059811 3.92915925 11.86956726 6.59549431 11.83984375 9.29296875 C11.81921875 11.91234375 11.79859375 14.53171875 11.77734375 17.23046875 C6.49734375 17.23046875 1.21734375 17.23046875 -4.22265625 17.23046875 C-4.42890625 14.79671875 -4.63515625 12.36296875 -4.84765625 9.85546875 C-4.91807129 9.09057129 -4.98848633 8.32567383 -5.06103516 7.53759766 C-5.19425742 5.77275567 -5.21072486 4.00029163 -5.22265625 2.23046875 C-3.22265625 0.23046875 -3.22265625 0.23046875 0 0 Z " fill="#80DBE8" transform="translate(652.22265625,392.76953125)"/>
<path d="M0 0 C0.66 0 1.32 0 2 0 C2.18175781 0.84304688 2.36351562 1.68609375 2.55078125 2.5546875 C2.80214844 3.65039062 3.05351563 4.74609375 3.3125 5.875 C3.67794922 7.51082031 3.67794922 7.51082031 4.05078125 9.1796875 C4.77902058 12.29442353 4.77902058 12.29442353 8 14 C10.64017635 14.81779841 13.30270591 15.3809489 16 16 C13.30394822 17.79736785 12.04791143 18.26653999 9.0625 19 C6.10303217 20.03009101 5.19358134 20.66806967 3.58984375 23.41796875 C2.60364327 25.92411978 1.73840062 28.41073995 1 31 C-0.29529236 28.59445705 -1.10008434 26.58175279 -1.7421875 23.8984375 C-2.7431513 20.75659548 -2.7431513 20.75659548 -5.8203125 19.5390625 C-6.91085937 19.23742187 -8.00140625 18.93578125 -9.125 18.625 C-10.22070312 18.30789063 -11.31640625 17.99078125 -12.4453125 17.6640625 C-13.28835938 17.44492187 -14.13140625 17.22578125 -15 17 C-12.36591552 15.58743602 -10.42783962 14.87954518 -7.4375 14.25 C-3.83554008 13.31332084 -3.83554008 13.31332084 -2.125 10.3125 C-0.95077212 6.85505124 -0.362825 3.62825003 0 0 Z " fill="#F2F8F8" transform="translate(509,466)"/>
<path d="M0 0 C0.66 0.99 1.32 1.98 2 3 C1.33355469 3.40089844 0.66710937 3.80179687 -0.01953125 4.21484375 C-0.94121094 4.78332031 -1.86289062 5.35179687 -2.8125 5.9375 C-3.70582031 6.48277344 -4.59914063 7.02804687 -5.51953125 7.58984375 C-15.05131313 13.92675432 -23.26412667 21.92373903 -31.3125 30 C-32.27123361 30.94296336 -33.2302175 31.88567233 -34.18945312 32.828125 C-39.45730069 38.09229647 -44.50006717 43.35952281 -48 50 C-48 50.66 -48 51.32 -48 52 C-49.32 52 -50.64 52 -52 52 C-50.58810173 47.98263998 -48.66297846 44.90951069 -46.125 41.5 C-45.44695312 40.5821875 -44.76890625 39.664375 -44.0703125 38.71875 C-40.80047078 34.42476918 -37.80574659 30.76554576 -33.57421875 27.38671875 C-31.83882827 25.8580249 -30.4133117 24.21682053 -28.9375 22.4375 C-26.53735722 19.55228899 -24.10293359 17.15481499 -21 15 C-20.34 15 -19.68 15 -19 15 C-18.67 14.01 -18.34 13.02 -18 12 C-16.00390625 10.39453125 -16.00390625 10.39453125 -13.5625 8.8125 C-12.75941406 8.28269531 -11.95632813 7.75289063 -11.12890625 7.20703125 C-9 6 -9 6 -7 6 C-7 5.34 -7 4.68 -7 4 C-3.535 2.02 -3.535 2.02 0 0 Z " fill="#54B5DA" transform="translate(427,369)"/>
<path d="M0 0 C0.99 0.66 1.98 1.32 3 2 C3.42153905 6.68751422 3.1285499 11.28650378 3 16 C-1.62 16 -6.24 16 -11 16 C-11 11.38 -11 6.76 -11 2 C-7.37 2 -3.74 2 0 2 C0 1.34 0 0.68 0 0 Z " fill="#46A3D2" transform="translate(471,561)"/>
<path d="M0 0 C4.62 0 9.24 0 14 0 C14 4.62 14 9.24 14 14 C9.38 14 4.76 14 0 14 C-2.01362453 9.97275094 -0.41158984 4.29882718 0 0 Z " fill="#4FA7D3" transform="translate(445,548)"/>
<path d="M0 0 C4.62 0 9.24 0 14 0 C14 4.62 14 9.24 14 14 C9.38 14 4.76 14 0 14 C0 9.38 0 4.76 0 0 Z " fill="#48A8D5" transform="translate(430,578)"/>
<path d="M0 0 C1.24265625 -0.00257813 2.4853125 -0.00515625 3.765625 -0.0078125 C6.75 0.125 6.75 0.125 7.75 1.125 C7.89393457 5.46030918 7.79212061 9.78657731 7.75 14.125 C12.04 14.455 16.33 14.785 20.75 15.125 C20.73839844 14.12597656 20.72679687 13.12695312 20.71484375 12.09765625 C20.70582031 10.80730469 20.69679688 9.51695312 20.6875 8.1875 C20.67589844 6.89972656 20.66429687 5.61195313 20.65234375 4.28515625 C20.75 1.125 20.75 1.125 21.75 0.125 C23.41617115 0.08436168 25.08388095 0.082279 26.75 0.125 C26.42 0.785 26.09 1.445 25.75 2.125 C25.09 2.125 24.43 2.125 23.75 2.125 C23.42 7.075 23.09 12.025 22.75 17.125 C18.13 17.125 13.51 17.125 8.75 17.125 C8.42 21.745 8.09 26.365 7.75 31.125 C7.42 31.125 7.09 31.125 6.75 31.125 C6.75 26.505 6.75 21.885 6.75 17.125 C2.46 17.125 -1.83 17.125 -6.25 17.125 C-6.25 16.795 -6.25 16.465 -6.25 16.125 C-1.96 16.125 2.33 16.125 6.75 16.125 C6.75 11.505 6.75 6.885 6.75 2.125 C2.13 2.125 -2.49 2.125 -7.25 2.125 C-7.25 6.745 -7.25 11.365 -7.25 16.125 C-7.58 16.125 -7.91 16.125 -8.25 16.125 C-8.25 12.165 -8.25 8.205 -8.25 4.125 C-9.57 3.795 -10.89 3.465 -12.25 3.125 C-12.25 2.465 -12.25 1.805 -12.25 1.125 C-8.1221011 0.13241362 -4.2391109 -0.00886843 0 0 Z " fill="#80D6E4" transform="translate(596.25,362.875)"/>
<path d="M0 0 C1.32 0 2.64 0 4 0 C4.08086147 1.79093191 4.13912702 3.58289628 4.1875 5.375 C4.23970703 6.87160156 4.23970703 6.87160156 4.29296875 8.3984375 C4.19628906 9.25695312 4.09960938 10.11546875 4 11 C0.36804504 13.42130331 -1.38349348 13.21022785 -5.6875 13.125 C-6.86699219 13.10695313 -8.04648437 13.08890625 -9.26171875 13.0703125 C-10.16535156 13.04710937 -11.06898438 13.02390625 -12 13 C-12 15.64 -12 18.28 -12 21 C-13.32 21 -14.64 21 -16 21 C-16.08121924 19.39667209 -16.13929134 17.79215974 -16.1875 16.1875 C-16.22230469 15.29417969 -16.25710938 14.40085937 -16.29296875 13.48046875 C-16 11 -16 11 -14.875 9.21875 C-12.21262059 7.48820338 -9.96068572 7.4817573 -6.8125 7.3125 C-5.72582031 7.24675781 -4.63914062 7.18101562 -3.51953125 7.11328125 C-2.68808594 7.07589844 -1.85664062 7.03851562 -1 7 C-0.67 4.69 -0.34 2.38 0 0 Z " fill="#F5F9FA" transform="translate(584,556)"/>
<path d="M0 0 C-1 2 -1 2 -3.83203125 3.1484375 C-13.17917714 6.14832093 -22.60496128 7.90616873 -32.3125 9.3125 C-33.47950439 9.48378418 -34.64650879 9.65506836 -35.84887695 9.83154297 C-43.2762816 10.84119512 -50.50775989 11.20733565 -58 11 C-58 10.01 -58 9.02 -58 8 C-57.33693848 7.96036133 -56.67387695 7.92072266 -55.99072266 7.87988281 C-38.74225862 6.80129515 -22.68880466 4.58522939 -6.1640625 -0.58203125 C-3.7649074 -1.04540597 -2.29593858 -0.77055473 0 0 Z " fill="#2491C9" transform="translate(568,665)"/>
<path d="M0 0 C0.33 0.66 0.66 1.32 1 2 C1.99 2.33 2.98 2.66 4 3 C8 7.45714286 8 7.45714286 8 10 C8.66 10 9.32 10 10 10 C11.32967768 11.88371004 12.562695 13.83595931 13.75 15.8125 C14.10344482 16.399104 14.45688965 16.98570801 14.82104492 17.59008789 C18.04041779 22.97412376 21.06796735 28.4546339 24 34 C24.35320313 34.63035156 24.70640625 35.26070313 25.0703125 35.91015625 C25.9375 37.5 25.9375 37.5 27 40 C26.67 40.99 26.34 41.98 26 43 C24 39.25 24 39.25 24 37 C23.34 37 22.68 37 22 37 C19.21538953 33.98333866 18.23224555 30.86103606 17 27 C16.34 26.01 15.68 25.02 15 24 C15 23.01 15 22.02 15 21 C14.01 20.67 13.02 20.34 12 20 C11.505 17.525 11.505 17.525 11 15 C10.34 15 9.68 15 9 15 C7.4921875 13.25 7.4921875 13.25 5.875 11 C5.33617187 10.2575 4.79734375 9.515 4.2421875 8.75 C3.83226562 8.1725 3.42234375 7.595 3 7 C1.7934375 7.5259375 1.7934375 7.5259375 0.5625 8.0625 C-3.90346108 9.23775292 -7.49837555 8.74026713 -12 8 C-12 7.67 -12 7.34 -12 7 C-8.04 7 -4.08 7 0 7 C0 4.69 0 2.38 0 0 Z " fill="#86DBE5" transform="translate(633,402)"/>
<path d="M0 0 C0.33 0 0.66 0 1 0 C1 5.28 1 10.56 1 16 C5.95 16 10.9 16 16 16 C16 19.96 16 23.92 16 28 C15.67 28 15.34 28 15 28 C15 24.37 15 20.74 15 17 C10.38 17 5.76 17 1 17 C1 21.62 1 26.24 1 31 C0.67 31 0.34 31 0 31 C0 26.38 0 21.76 0 17 C-4.62 17 -9.24 17 -14 17 C-14 16.67 -14 16.34 -14 16 C-9.38 16 -4.76 16 0 16 C0 10.72 0 5.44 0 0 Z " fill="#356692" transform="translate(444,561)"/>
<path d="M0 0 C0.33 1.32 0.66 2.64 1 4 C-4.75 9 -4.75 9 -7 9 C-7 9.66 -7 10.32 -7 11 C-8.98 11 -10.96 11 -13 11 C-11.50104329 7.18447383 -9.2013144 5.46254954 -6 3 C-5.67 2.34 -5.34 1.68 -5 1 C-2.4375 0.375 -2.4375 0.375 0 0 Z " fill="#4CA9D6" transform="translate(623,628)"/>
<path d="M0 0 C1.134375 0.020625 2.26875 0.04125 3.4375 0.0625 C3.4375 2.7025 3.4375 5.3425 3.4375 8.0625 C0.7975 8.0625 -1.8425 8.0625 -4.5625 8.0625 C-4.60491723 5.72955225 -4.60342937 3.39547433 -4.5625 1.0625 C-3.5625 0.0625 -3.5625 0.0625 0 0 Z " fill="#6EBDDD" transform="translate(586.5625,595.9375)"/>
<path d="M0 0 C1.24265625 -0.00257813 2.4853125 -0.00515625 3.765625 -0.0078125 C6.75 0.125 6.75 0.125 7.75 1.125 C7.82258946 3.31139453 7.83373783 5.50000389 7.8125 7.6875 C7.80347656 8.88503906 7.79445313 10.08257812 7.78515625 11.31640625 C7.77355469 12.24324219 7.76195312 13.17007812 7.75 14.125 C7.42 14.125 7.09 14.125 6.75 14.125 C6.75 10.165 6.75 6.205 6.75 2.125 C2.13 2.125 -2.49 2.125 -7.25 2.125 C-7.25 6.745 -7.25 11.365 -7.25 16.125 C-7.58 16.125 -7.91 16.125 -8.25 16.125 C-8.25 12.165 -8.25 8.205 -8.25 4.125 C-9.57 3.795 -10.89 3.465 -12.25 3.125 C-12.25 2.465 -12.25 1.805 -12.25 1.125 C-8.1221011 0.13241362 -4.2391109 -0.00886843 0 0 Z " fill="#72CFDF" transform="translate(596.25,362.875)"/>
<path d="M0 0 C4.5539637 1.46377405 5.93226596 5.02544508 8 9 C8.68272133 10.19025379 9.3701284 11.37783377 10.0625 12.5625 C13.7492163 19.10344828 13.7492163 19.10344828 15 22 C14.67 22.99 14.34 23.98 14 25 C12 21.25 12 21.25 12 19 C11.34 19 10.68 19 10 19 C7.21538953 15.98333866 6.23224555 12.86103606 5 9 C4.34 8.01 3.68 7.02 3 6 C3 5.01 3 4.02 3 3 C2.01 2.67 1.02 2.34 0 2 C0 1.34 0 0.68 0 0 Z " fill="#78DAE3" transform="translate(645,420)"/>
<path d="M0 0 C0.33 0 0.66 0 1 0 C1 4.62 1 9.24 1 14 C4.63 14 8.26 14 12 14 C12 14.33 12 14.66 12 15 C8.37 15 4.74 15 1 15 C1 19.62 1 24.24 1 29 C0.67 29 0.34 29 0 29 C0 24.38 0 19.76 0 15 C-4.62 15 -9.24 15 -14 15 C-14 14.67 -14 14.34 -14 14 C-9.38 14 -4.76 14 0 14 C0 9.38 0 4.76 0 0 Z " fill="#95CFE4" transform="translate(459,548)"/>
<path d="M0 0 C0.33 0 0.66 0 1 0 C1.13277344 1.24136719 1.26554687 2.48273437 1.40234375 3.76171875 C1.58061151 5.40365861 1.75900346 7.04558499 1.9375 8.6875 C2.02451172 9.50412109 2.11152344 10.32074219 2.20117188 11.16210938 C2.73316627 16.03232147 2.73316627 16.03232147 3.69140625 20.83203125 C4.07340256 23.51567621 3.42130106 24.74263949 2 27 C1.3267344 24.10555905 0.66119596 21.20969987 0 18.3125 C-0.28617187 17.08756836 -0.28617187 17.08756836 -0.578125 15.83789062 C-1.48733916 11.82760674 -2.27000098 8.14282748 -2 4 C-1.34 4 -0.68 4 0 4 C0 2.68 0 1.36 0 0 Z " fill="#0F3568" transform="translate(350,528)"/>
<path d="M0 0 C0 3.89628044 -1.16377687 4.54923749 -3.8125 7.3125 C-6.36356014 10.06083017 -8.05766965 12.11533931 -9.75 15.5 C-11 18 -11 18 -13.1875 18.875 C-13.785625 18.91625 -14.38375 18.9575 -15 19 C-12.47774196 10.92877429 -6.50288594 5.07917719 0 0 Z " fill="#42AED2" transform="translate(390,402)"/>
<path d="M0 0 C2.31 0 4.62 0 7 0 C7 2.31 7 4.62 7 7 C4.69 7 2.38 7 0 7 C0 4.69 0 2.38 0 0 Z " fill="#50AED8" transform="translate(591,605)"/>
<path d="M0 0 C2.31 0 4.62 0 7 0 C7 2.31 7 4.62 7 7 C4.69 7 2.38 7 0 7 C0 4.69 0 2.38 0 0 Z " fill="#49AED8" transform="translate(600,596)"/>
<path d="M0 0 C2.31 0 4.62 0 7 0 C7 2.31 7 4.62 7 7 C4.69 7 2.38 7 0 7 C0 4.69 0 2.38 0 0 Z " fill="#59B4D9" transform="translate(591,588)"/>
<path d="M0 0 C0.33 0 0.66 0 1 0 C1 4.29 1 8.58 1 13 C5.62 13 10.24 13 15 13 C15 13.66 15 14.32 15 15 C9.72 15 4.44 15 -1 15 C-0.67 10.05 -0.34 5.1 0 0 Z " fill="#72D6E4" transform="translate(649,395)"/>
<path d="M0 0 C3 1 3 1 4.60546875 3.87109375 C5.12753906 5.04800781 5.64960938 6.22492187 6.1875 7.4375 C6.71730469 8.61183594 7.24710937 9.78617188 7.79296875 10.99609375 C9 14 9 14 9 16 C6 15 6 15 4.39453125 12.3828125 C3.87246094 11.30773437 3.35039062 10.23265625 2.8125 9.125 C2.28269531 8.05507813 1.75289063 6.98515625 1.20703125 5.8828125 C0 3 0 3 0 0 Z " fill="#0B336F" transform="translate(360,576)"/>
<path d="M0 0 C0.66 0 1.32 0 2 0 C4.4793824 6.24273068 5.31985731 11.28299653 5 18 C2.59436247 15.59436247 2.39641689 14.32990189 2 11 C2.4375 8.6875 2.4375 8.6875 3 7 C2.34 7 1.68 7 1 7 C1.33 5.68 1.66 4.36 2 3 C1.34 3 0.68 3 0 3 C0 2.01 0 1.02 0 0 Z " fill="#6DCEDE" transform="translate(667,468)"/>
<path d="M0 0 C0.99 0.66 1.98 1.32 3 2 C1.40377344 3.03320481 -0.20229106 4.05122429 -1.8125 5.0625 C-3.15248047 5.91521484 -3.15248047 5.91521484 -4.51953125 6.78515625 C-7 8 -7 8 -10 7 C-7.0094833 3.66442368 -4.06815373 1.84916079 0 0 Z " fill="#62BDD9" transform="translate(440,362)"/>
<path d="M0 0 C4.81033104 2.54664585 8.32442148 4.99027798 12 9 C11.01 9.33 10.02 9.66 9 10 C9 9.34 9 8.68 9 8 C8.2575 7.731875 7.515 7.46375 6.75 7.1875 C4.09090121 6.0392528 2.12218515 4.96498625 0 3 C0 2.01 0 1.02 0 0 Z " fill="#062B63" transform="translate(407,637)"/>
<path d="M0 0 C1.58294782 -0.05437607 3.16644256 -0.09296271 4.75 -0.125 C5.63171875 -0.14820313 6.5134375 -0.17140625 7.421875 -0.1953125 C10.1135858 0.00860498 11.69904974 0.63448279 14 2 C4.58997722 3.33257403 4.58997722 3.33257403 0 2 C0 1.34 0 0.68 0 0 Z " fill="#78D4E2" transform="translate(528,348)"/>
<path d="M0 0 C0.66 0 1.32 0 2 0 C1.55530671 5.03985731 -0.71343362 7.37634988 -4 11 C-4.66 10.34 -5.32 9.68 -6 9 C-5.05016642 7.49460339 -4.08988109 5.99579653 -3.125 4.5 C-2.59132813 3.6646875 -2.05765625 2.829375 -1.5078125 1.96875 C-0.76144531 0.99421875 -0.76144531 0.99421875 0 0 Z " fill="#49A9D0" transform="translate(646,600)"/>
<path d="M0 0 C0 0.66 0 1.32 0 2 C-5.61 1.67 -11.22 1.34 -17 1 C-17 0.67 -17 0.34 -17 0 C-14.54203147 -0.19436491 -12.08390706 -0.3807742 -9.625 -0.5625 C-8.92632812 -0.61857422 -8.22765625 -0.67464844 -7.5078125 -0.73242188 C-2.2265625 -1.11328125 -2.2265625 -1.11328125 0 0 Z " fill="#0E3C6F" transform="translate(510,674)"/>
<path d="M0 0 C0.66 0 1.32 0 2 0 C3.32 3.3 4.64 6.6 6 10 C5.34 10.66 4.68 11.32 4 12 C1.41338968 8.12008452 0.88206988 4.5363594 0 0 Z " fill="#7AD5E3" transform="translate(659,445)"/>
<path d="M0 0 C0.66 0 1.32 0 2 0 C1.35341074 3.49158202 0.03960471 6.0974856 -2 9 C-2.99 9.33 -3.98 9.66 -5 10 C-5 9.01 -5 8.02 -5 7 C-4.34 7 -3.68 7 -3 7 C-2.690625 6.21625 -2.38125 5.4325 -2.0625 4.625 C-1 2 -1 2 0 0 Z " fill="#53ADD2" transform="translate(653,589)"/>
<path d="M0 0 C3.875 0.875 3.875 0.875 5 2 C5.07258946 4.18639453 5.08373783 6.37500389 5.0625 8.5625 C5.05347656 9.76003906 5.04445313 10.95757812 5.03515625 12.19140625 C5.02355469 13.11824219 5.01195312 14.04507812 5 15 C4.67 15 4.34 15 4 15 C4 11.04 4 7.08 4 3 C2.68 2.67 1.36 2.34 0 2 C0 1.34 0 0.68 0 0 Z " fill="#79D8E6" transform="translate(584,364)"/>
<path d="M0 0 C4.56454251 0.54339792 7.9728176 1.79463821 12 4 C8.87365774 5.04211409 7.95151159 4.99926113 4.875 4.25 C3.81925781 4.01023437 3.81925781 4.01023437 2.7421875 3.765625 C2.16726563 3.51296875 1.59234375 3.2603125 1 3 C0.67 2.01 0.34 1.02 0 0 Z " fill="#87DEE7" transform="translate(572,359)"/>
<path d="M0 0 C2.97 0.495 2.97 0.495 6 1 C5.01 1.5259375 5.01 1.5259375 4 2.0625 C1.58896039 3.96557142 1.58896039 3.96557142 1.75 7.6875 C1.8325 8.780625 1.915 9.87375 2 11 C1.01 11.495 1.01 11.495 0 12 C0 8.04 0 4.08 0 0 Z " fill="#ACE1F0" transform="translate(460,577)"/>
<path d="M0 0 C1.43088528 2.86177057 0.59991697 4.93375773 0 8 C-1.32 8 -2.64 8 -4 8 C-2.87548273 5.0280615 -1.77706209 2.66559313 0 0 Z " fill="#51AFD5" transform="translate(379,413)"/>
<path d="M0 0 C0.33 0 0.66 0 1 0 C1 2.64 1 5.28 1 8 C-2.3 8 -5.6 8 -9 8 C-9 7.67 -9 7.34 -9 7 C-5.535 6.505 -5.535 6.505 -2 6 C-1.34 4.02 -0.68 2.04 0 0 Z " fill="#54B1D6" transform="translate(582,556)"/>
<path d="M0 0 C0.66 0 1.32 0 2 0 C1.40072174 3.35595828 0.15377564 5.37801226 -2 8 C-3 5 -3 5 -1.6875 2.3125 C-1.130625 1.549375 -0.57375 0.78625 0 0 Z " fill="#4FB3D0" transform="translate(658,580)"/>
<path d="M0 0 C2.31 0.33 4.62 0.66 7 1 C7 1.99 7 2.98 7 4 C4.69 3.34 2.38 2.68 0 2 C0 1.34 0 0.68 0 0 Z " fill="#86DAE5" transform="translate(564,356)"/>
<path d="M0 0 C1.32 0.99 2.64 1.98 4 3 C1.35261084 4.4606285 0.10551666 5 -3 5 C-1.125 1.125 -1.125 1.125 0 0 Z " fill="#59AED6" transform="translate(616,632)"/>
<path d="M0 0 C1 2 1 2 0.1875 4.5625 C-1 7 -1 7 -3 8 C-3.33 7.01 -3.66 6.02 -4 5 C-3.67 4.34 -3.34 3.68 -3 3 C-2.34 3 -1.68 3 -1 3 C-0.67 2.01 -0.34 1.02 0 0 Z " fill="#04295B" transform="translate(362,446)"/>
</svg>
